<svg xmlns="http://www.w3.org/2000/svg" width="24" height="24" viewBox="0 0 24 24">
  <title>SVS batch lyrics</title>
  <path d="M4 3h16a1 1 0 0 1 1 1v13a1 1 0 0 1-1 1H9l-5 3v-3H4a1 1 0 0 1-1-1V4a1 1 0 0 1 1-1Z" fill="none" stroke="#ffffff" stroke-width="1.5" stroke-linejoin="round"/>
  <path d="M6 7h7M6 11h5M6 15h3M17 8v6M17 8l2 1.5" fill="none" stroke="#ffffff" stroke-width="1.5" stroke-linecap="round" stroke-linejoin="round"/>
  <ellipse cx="15.5" cy="14.5" rx="2" ry="1.4" transform="rotate(-20 15.5 14.5)" fill="#ffffff"/>
</svg>
